# xmcd
#
# Track frame offsets: 
#        150
#        12428
#        21116
#        34977
#        46872
#        58926
#        75672
#        88822
#        101110
#        116938
#        127798
#        143720
#        156950
#        172668
#        191389
#        204048
#        214407
#        230463
#        237426
#        247874
#
# Disc length: 3501 seconds
#
# Revision: 0
# Processed by: cddbd v1.5.2PL0 Copyright (c) Steve Scherf et al.
# Submitted via: ExactAudioCopyFreeDBPlugin 1.0
#
DISCID=090dab14
DTITLE=Bob Bovee - Come All You Waddies
DYEAR=1987
DGENRE=Country
TTITLE0=Tyin' Knots in the Devil's Tail
TTITLE1=Dayherding in the Rain
TTITLE2=Trail to Mexico
TTITLE3=Punchin' the Dough
TTITLE4=Mother the Queen of My Heart
TTITLE5=The Dreary Black Hills
TTITLE6=When the Work's All Done This Fall
TTITLE7=The Gol-Darned Wheel
TTITLE8=Cowboy Jack
TTITLE9=Night Herding Song
TTITLE10=The Horse Wrangler
TTITLE11=A Message from Home Sweet Home
TTITLE12=Sam Bass
TTITLE13=The Strawberry Roan
TTITLE14=Clayton Boone
TTITLE15=The Cattle Call
TTITLE16=Little Joe the Wrangler
TTITLE17=Windy Bill
TTITLE18=Texas Rangers
TTITLE19=The Zebra Dun
EXTD=
EXTT0=
EXTT1=
EXTT2=
EXTT3=
EXTT4=
EXTT5=
EXTT6=
EXTT7=
EXTT8=
EXTT9=
EXTT10=
EXTT11=
EXTT12=
EXTT13=
EXTT14=
EXTT15=
EXTT16=
EXTT17=
EXTT18=
EXTT19=
PLAYORDER=
